solid OpenSCAD_Model
  facet normal 1 -0 0
    outer loop
      vertex 5 0 8
      vertex 5 10 3
      vertex 5 10 8
    endloop
  endfacet
  facet normal 1 0 0
    outer loop
      vertex 5 10 3
      vertex 5 0 8
      vertex 5 0 3
    endloop
  endfacet
  facet normal -0 0 1
    outer loop
      vertex 0 10 8
      vertex 5 0 8
      vertex 5 10 8
    endloop
  endfacet
  facet normal 0 0 1
    outer loop
      vertex 5 0 8
      vertex 0 10 8
      vertex 0 0 8
    endloop
  endfacet
  facet normal 0 0 -1
    outer loop
      vertex 0 0 0
      vertex 11 10 0
      vertex 11 0 0
    endloop
  endfacet
  facet normal -0 0 -1
    outer loop
      vertex 11 10 0
      vertex 0 0 0
      vertex 0 10 0
    endloop
  endfacet
  facet normal -1 0 0
    outer loop
      vertex 0 0 0
      vertex 0 10 8
      vertex 0 10 0
    endloop
  endfacet
  facet normal -1 -0 0
    outer loop
      vertex 0 10 8
      vertex 0 0 0
      vertex 0 0 8
    endloop
  endfacet
  facet normal 0 1 0
    outer loop
      vertex 11 10 3
      vertex 11 10 0
      vertex 5 10 3
    endloop
  endfacet
  facet normal 0 1 -0
    outer loop
      vertex 5 10 3
      vertex 0 10 8
      vertex 5 10 8
    endloop
  endfacet
  facet normal 0 1 0
    outer loop
      vertex 5 10 3
      vertex 0 10 0
      vertex 0 10 8
    endloop
  endfacet
  facet normal 0 1 0
    outer loop
      vertex 0 10 0
      vertex 5 10 3
      vertex 11 10 0
    endloop
  endfacet
  facet normal 0 -1 0
    outer loop
      vertex 0 0 8
      vertex 5 0 3
      vertex 5 0 8
    endloop
  endfacet
  facet normal 0 -1 0
    outer loop
      vertex 0 0 0
      vertex 5 0 3
      vertex 0 0 8
    endloop
  endfacet
  facet normal 0 -1 0
    outer loop
      vertex 11 0 0
      vertex 5 0 3
      vertex 0 0 0
    endloop
  endfacet
  facet normal 0 -1 0
    outer loop
      vertex 5 0 3
      vertex 11 0 0
      vertex 11 0 3
    endloop
  endfacet
  facet normal 1 -0 0
    outer loop
      vertex 11 0 3
      vertex 11 10 0
      vertex 11 10 3
    endloop
  endfacet
  facet normal 1 0 0
    outer loop
      vertex 11 10 0
      vertex 11 0 3
      vertex 11 0 0
    endloop
  endfacet
  facet normal -0 0 1
    outer loop
      vertex 5 10 3
      vertex 11 0 3
      vertex 11 10 3
    endloop
  endfacet
  facet normal 0 0 1
    outer loop
      vertex 11 0 3
      vertex 5 10 3
      vertex 5 0 3
    endloop
  endfacet
endsolid OpenSCAD_Model
