solid OpenSCAD_Model
  facet normal -1 0 0
    outer loop
      vertex 0 10 28
      vertex 0 36 23
      vertex 0 10 23
    endloop
  endfacet
  facet normal -1 0 0
    outer loop
      vertex 0 36 23
      vertex 0 10 28
      vertex 0 36 38
    endloop
  endfacet
  facet normal -1 -0 0
    outer loop
      vertex 0 36 38
      vertex 0 10 28
      vertex 0 10 38
    endloop
  endfacet
  facet normal 0 0 1
    outer loop
      vertex 80 36 28
      vertex 52 10 28
      vertex 80 0 28
    endloop
  endfacet
  facet normal -0 0 1
    outer loop
      vertex 5 36 28
      vertex 52 10 28
      vertex 80 36 28
    endloop
  endfacet
  facet normal 0 0 1
    outer loop
      vertex 52 10 28
      vertex 5 36 28
      vertex 5 10 28
    endloop
  endfacet
  facet normal 0 0 1
    outer loop
      vertex 80 0 28
      vertex 52 10 28
      vertex 52 0 28
    endloop
  endfacet
  facet normal 1 0 0
    outer loop
      vertex 80 36 28
      vertex 80 22 23
      vertex 80 36 0
    endloop
  endfacet
  facet normal 1 -0 0
    outer loop
      vertex 80 0 28
      vertex 80 22 23
      vertex 80 36 28
    endloop
  endfacet
  facet normal 1 0 0
    outer loop
      vertex 80 22 23
      vertex 80 0 28
      vertex 80 5 23
    endloop
  endfacet
  facet normal 1 0 0
    outer loop
      vertex 80 0 0
      vertex 80 5 23
      vertex 80 0 28
    endloop
  endfacet
  facet normal 1 0 0
    outer loop
      vertex 80 5 23
      vertex 80 0 0
      vertex 80 5 0
    endloop
  endfacet
  facet normal 1 0 0
    outer loop
      vertex 80 36 0
      vertex 80 22 23
      vertex 80 22 0
    endloop
  endfacet
  facet normal 0 0 -1
    outer loop
      vertex 52 0 0
      vertex 80 5 0
      vertex 80 0 0
    endloop
  endfacet
  facet normal -0 0 -1
    outer loop
      vertex 80 5 0
      vertex 52 0 0
      vertex 52 5 0
    endloop
  endfacet
  facet normal 0 0 -1
    outer loop
      vertex 52 22 0
      vertex 80 36 0
      vertex 80 22 0
    endloop
  endfacet
  facet normal -0 0 -1
    outer loop
      vertex 80 36 0
      vertex 52 22 0
      vertex 52 36 0
    endloop
  endfacet
  facet normal 0 -1 0
    outer loop
      vertex 52 0 0
      vertex 80 0 28
      vertex 52 0 28
    endloop
  endfacet
  facet normal 0 -1 -0
    outer loop
      vertex 80 0 28
      vertex 52 0 0
      vertex 80 0 0
    endloop
  endfacet
  facet normal 0 1 0
    outer loop
      vertex 80 36 28
      vertex 72 36 23
      vertex 5 36 28
    endloop
  endfacet
  facet normal 0 1 0
    outer loop
      vertex 80 36 28
      vertex 72 36 5
      vertex 72 36 23
    endloop
  endfacet
  facet normal 0 1 -0
    outer loop
      vertex 80 36 0
      vertex 72 36 5
      vertex 80 36 28
    endloop
  endfacet
  facet normal 0 1 0
    outer loop
      vertex 52 36 0
      vertex 72 36 5
      vertex 80 36 0
    endloop
  endfacet
  facet normal 0 1 0
    outer loop
      vertex 72 36 5
      vertex 52 36 0
      vertex 52 36 5
    endloop
  endfacet
  facet normal 0 1 -0
    outer loop
      vertex 5 36 28
      vertex 0 36 38
      vertex 5 36 38
    endloop
  endfacet
  facet normal 0 1 0
    outer loop
      vertex 5 36 28
      vertex 0 36 23
      vertex 0 36 38
    endloop
  endfacet
  facet normal 0 1 0
    outer loop
      vertex 0 36 23
      vertex 5 36 28
      vertex 72 36 23
    endloop
  endfacet
  facet normal 0 0 -1
    outer loop
      vertex 80 5 23
      vertex 72 22 23
      vertex 80 22 23
    endloop
  endfacet
  facet normal 0 0 -1
    outer loop
      vertex 52 10 23
      vertex 80 5 23
      vertex 52 5 23
    endloop
  endfacet
  facet normal 0 0 -1
    outer loop
      vertex 80 5 23
      vertex 52 10 23
      vertex 72 22 23
    endloop
  endfacet
  facet normal -0 0 -1
    outer loop
      vertex 72 22 23
      vertex 52 10 23
      vertex 72 36 23
    endloop
  endfacet
  facet normal 0 0 -1
    outer loop
      vertex 0 36 23
      vertex 52 10 23
      vertex 0 10 23
    endloop
  endfacet
  facet normal 0 0 -1
    outer loop
      vertex 52 10 23
      vertex 0 36 23
      vertex 72 36 23
    endloop
  endfacet
  facet normal -1 0 0
    outer loop
      vertex 72 22 5
      vertex 72 36 23
      vertex 72 36 5
    endloop
  endfacet
  facet normal -1 -0 0
    outer loop
      vertex 72 36 23
      vertex 72 22 5
      vertex 72 22 23
    endloop
  endfacet
  facet normal -0 0 1
    outer loop
      vertex 52 36 5
      vertex 72 22 5
      vertex 72 36 5
    endloop
  endfacet
  facet normal 0 0 1
    outer loop
      vertex 72 22 5
      vertex 52 36 5
      vertex 52 22 5
    endloop
  endfacet
  facet normal 0 1 -0
    outer loop
      vertex 80 5 0
      vertex 52 5 23
      vertex 80 5 23
    endloop
  endfacet
  facet normal 0 1 0
    outer loop
      vertex 52 5 23
      vertex 80 5 0
      vertex 52 5 0
    endloop
  endfacet
  facet normal -1 0 0
    outer loop
      vertex 52 5 0
      vertex 52 0 0
      vertex 52 5 23
    endloop
  endfacet
  facet normal -1 0 0
    outer loop
      vertex 52 5 23
      vertex 52 10 28
      vertex 52 10 23
    endloop
  endfacet
  facet normal -1 0 0
    outer loop
      vertex 52 5 23
      vertex 52 0 28
      vertex 52 10 28
    endloop
  endfacet
  facet normal -1 0 0
    outer loop
      vertex 52 0 28
      vertex 52 5 23
      vertex 52 0 0
    endloop
  endfacet
  facet normal -1 0 0
    outer loop
      vertex 52 22 0
      vertex 52 36 5
      vertex 52 36 0
    endloop
  endfacet
  facet normal -1 -0 0
    outer loop
      vertex 52 36 5
      vertex 52 22 0
      vertex 52 22 5
    endloop
  endfacet
  facet normal 0 -1 0
    outer loop
      vertex 52 22 5
      vertex 52 22 0
      vertex 72 22 5
    endloop
  endfacet
  facet normal 0 -1 0
    outer loop
      vertex 72 22 5
      vertex 80 22 23
      vertex 72 22 23
    endloop
  endfacet
  facet normal 0 -1 0
    outer loop
      vertex 72 22 5
      vertex 80 22 0
      vertex 80 22 23
    endloop
  endfacet
  facet normal 0 -1 0
    outer loop
      vertex 80 22 0
      vertex 72 22 5
      vertex 52 22 0
    endloop
  endfacet
  facet normal 0 -1 0
    outer loop
      vertex 0 10 23
      vertex 5 10 28
      vertex 0 10 28
    endloop
  endfacet
  facet normal 0 -1 0
    outer loop
      vertex 52 10 23
      vertex 5 10 28
      vertex 0 10 23
    endloop
  endfacet
  facet normal 0 -1 0
    outer loop
      vertex 5 10 28
      vertex 52 10 23
      vertex 52 10 28
    endloop
  endfacet
  facet normal -0 0 1
    outer loop
      vertex 0 36 38
      vertex 5 10 38
      vertex 5 36 38
    endloop
  endfacet
  facet normal 0 0 1
    outer loop
      vertex 5 10 38
      vertex 0 36 38
      vertex 0 10 38
    endloop
  endfacet
  facet normal 1 -0 0
    outer loop
      vertex 5 10 38
      vertex 5 36 28
      vertex 5 36 38
    endloop
  endfacet
  facet normal 1 0 0
    outer loop
      vertex 5 36 28
      vertex 5 10 38
      vertex 5 10 28
    endloop
  endfacet
  facet normal 0 -1 0
    outer loop
      vertex 0 10 28
      vertex 5 10 38
      vertex 0 10 38
    endloop
  endfacet
  facet normal 0 -1 -0
    outer loop
      vertex 5 10 38
      vertex 0 10 28
      vertex 5 10 28
    endloop
  endfacet
endsolid OpenSCAD_Model
